<svg xmlns="http://www.w3.org/2000/svg" viewBox="0 -0.5 16 16" shape-rendering="crispEdges">
<metadata>Made with Pixels to Svg https://codepen.io/shshaw/pen/XbxvNj</metadata>
<path stroke="#640529" d="M3 1h1M6 1h6M2 2h1M2 3h1M13 3h1M2 4h1M13 4h1M2 5h1M13 5h1M2 6h1M13 6h1M2 7h1M13 7h1M2 8h1M13 8h1M2 9h1M2 10h2M6 10h6M2 11h1M13 11h1M2 12h1M13 12h1M2 13h1M13 13h1M3 14h11" />
<path stroke="#d27627" d="M4 1h1M13 1h1M4 10h1M13 10h1" />
<path stroke="#dca251" d="M5 1h1M12 1h1M4 2h1M13 2h1M4 9h1M13 9h1M5 10h1M12 10h1" />
<path stroke="#a81b41" d="M3 2h1M5 2h8M3 3h1M5 3h8M3 4h1M5 4h2M11 4h2M3 5h1M5 5h8M3 6h1M5 6h2M11 6h2M3 7h1M5 7h8M3 8h1M5 8h8M3 9h1M5 9h8" />
<path stroke="#640228" d="M4 3h1M4 4h1M4 5h1M4 6h1M4 7h1M4 8h1" />
<path stroke="#dfa452" d="M7 4h1M9 4h2M8 6h1M10 6h1" />
<path stroke="#d07729" d="M8 4h1M7 6h1M9 6h1" />
<path stroke="#fecfbb" d="M3 11h2M8 11h5M3 13h10" />
<path stroke="#a81b3f" d="M5 11h3" />
<path stroke="#f5efe7" d="M3 12h2M6 12h1M8 12h5" />
<path stroke="#ee3d3e" d="M5 12h1M7 12h1" />
</svg>